<?xml version="1.0" standalone="no"?>
<!DOCTYPE svg PUBLIC "-//W3C//DTD SVG 20010904//EN"
 "http://www.w3.org/TR/2001/REC-SVG-20010904/DTD/svg10.dtd">
<svg version="1.0" xmlns="http://www.w3.org/2000/svg"
 width="591.000000pt" height="517.000000pt" viewBox="0 0 591.000000 517.000000"
 preserveAspectRatio="xMidYMid meet">

<g transform="translate(0.000000,517.000000) scale(0.100000,-0.100000)"
fill="currentColor" stroke="none">
<path d="M119 5044 l-124 -124 369 -369 370 -370 -13 -42 c-32 -106 -1 -234
75 -305 l35 -34 -167 -80 c-92 -44 -170 -80 -175 -80 -4 0 -10 -15 -13 -32 -8
-47 -67 -780 -64 -783 6 -6 304 -85 320 -85 8 0 18 8 21 18 2 9 62 231 132
492 70 261 130 480 134 487 4 7 66 -60 159 -172 84 -102 156 -185 160 -185 10
0 337 328 332 333 -3 2 -87 72 -187 156 -147 122 -183 157 -183 176 0 14 2 25
5 25 3 0 82 -36 176 -80 95 -44 177 -77 183 -73 17 10 586 412 623 439 l31 24
-71 155 c-40 85 -75 155 -80 155 -4 0 -219 -99 -478 -220 l-470 -219 -47 33
c-77 55 -181 71 -265 41 l-38 -13 5 36 c11 74 29 341 24 354 -3 8 -100 79
-214 158 -115 80 -261 181 -325 226 l-117 82 -123 -124z m934 -905 c31 -14 57
-59 57 -99 0 -49 -55 -100 -108 -100 -68 0 -123 68 -106 134 15 60 95 93 157
65z"/>
<path d="M4210 4885 l0 -175 155 0 155 0 0 175 0 175 -155 0 -155 0 0 -175z"/>
<path d="M3267 4602 l-107 -107 125 -125 125 -125 110 110 110 110 -122 122
c-68 68 -125 123 -128 123 -3 0 -54 -48 -113 -108z"/>
<path d="M5222 4587 l-122 -122 110 -110 110 -110 125 125 125 125 -107 107
c-59 60 -110 108 -113 108 -3 0 -60 -55 -128 -123z"/>
<path d="M4164 4489 c-219 -46 -417 -163 -563 -334 -28 -33 -51 -65 -51 -70 0
-6 49 -59 109 -119 l109 -108 30 43 c36 53 123 139 176 175 55 38 171 89 236
105 77 18 241 16 320 -4 189 -49 366 -190 448 -358 98 -199 97 -438 -4 -630
-42 -79 -145 -196 -215 -243 l-48 -32 114 -114 114 -113 44 36 c166 136 280
308 344 514 25 82 27 101 27 273 0 173 -2 191 -27 273 -100 322 -335 570 -642
675 -158 54 -357 66 -521 31z"/>
<path d="M1740 3205 l-1085 -1085 121 -121 120 -120 925 918 c508 506 943 936
967 957 l42 38 43 -38 c23 -21 458 -451 966 -957 l925 -918 120 120 121 121
-1085 1085 c-597 597 -1087 1085 -1090 1085 -3 0 -493 -488 -1090 -1085z"/>
<path d="M5560 3505 l0 -155 175 0 175 0 0 155 0 155 -175 0 -175 0 0 -155z"/>
<path d="M5207 2662 l-107 -107 125 -125 125 -125 110 110 110 110 -122 122
c-68 68 -125 123 -128 123 -3 0 -54 -48 -113 -108z"/>
<path d="M1150 950 l0 -950 238 0 237 1 88 142 87 142 -160 3 -160 2 0 805 0
805 -165 0 -165 0 0 -950z"/>
<path d="M4180 1095 l0 -805 -161 0 c-90 0 -159 -4 -157 -9 2 -5 41 -70 88
-145 l85 -136 237 0 238 0 0 950 0 950 -165 0 -165 0 0 -805z"/>
<path d="M2420 1216 l0 -375 -126 -200 -126 -201 23 -25 c13 -13 30 -25 37
-25 6 0 12 -3 12 -7 0 -5 20 -17 45 -28 25 -11 45 -24 45 -29 0 -5 3 -6 7 -3
3 4 11 3 17 -2 21 -18 221 -79 281 -87 143 -18 387 -4 450 25 11 5 38 15 60
21 57 17 215 92 215 102 0 4 7 8 15 8 8 0 15 5 15 10 0 6 7 10 15 10 8 0 15 4
15 9 0 5 9 11 20 14 42 11 33 36 -84 220 l-116 184 0 376 0 377 -410 0 -410 0
0 -374z"/>
</g>
</svg>
