<svg version="1.0" xmlns="http://www.w3.org/2000/svg"
 width="1517.000000pt" height="278.000000pt" viewBox="0 0 1517.000000 278.000000"
 preserveAspectRatio="xMidYMid meet">

<g transform="translate(0.000000,278.000000) scale(0.100000,-0.100000)"
fill="currentColor" stroke="none">
<path d="M69 2704 l-64 -64 193 -193 193 -193 -7 -55 c-6 -57 7 -99 44 -142 8
-9 13 -18 11 -20 -2 -1 -43 -21 -91 -44 -49 -24 -89 -47 -89 -53 -1 -5 -3 -22
-4 -37 -10 -131 -26 -306 -31 -339 l-5 -42 79 -21 c43 -11 85 -21 93 -21 11 0
33 69 84 261 38 143 72 262 75 264 4 2 39 -36 79 -85 40 -50 77 -93 83 -96 10
-6 178 153 178 168 0 4 -43 42 -95 84 -135 110 -128 131 18 57 37 -18 73 -30
80 -27 7 4 87 61 179 126 l167 118 -35 78 c-19 42 -38 80 -42 83 -4 3 -119
-47 -257 -111 l-250 -118 -30 21 c-23 17 -45 22 -93 22 l-63 0 6 85 c4 47 8
91 10 97 5 14 -34 43 -226 175 l-126 87 -64 -65z m511 -496 c24 -26 25 -37 4
-66 -9 -13 -25 -22 -42 -22 -36 0 -49 10 -57 43 -15 57 53 89 95 45z"/>
<path d="M2240 2626 c0 -50 4 -88 11 -91 6 -4 43 -7 82 -7 l72 0 3 91 3 91
-86 0 -85 0 0 -84z"/>
<path d="M1740 2465 l-55 -55 68 -67 67 -68 55 55 c30 30 55 59 55 64 0 14
-112 126 -125 126 -6 0 -35 -25 -65 -55z"/>
<path d="M2782 2457 l-62 -63 58 -57 58 -57 62 63 c34 34 62 67 62 73 0 13
-92 104 -106 104 -5 0 -38 -28 -72 -63z"/>
<path d="M2215 2408 c-83 -15 -193 -76 -264 -146 l-65 -63 61 -61 60 -60 49
52 c27 29 74 65 104 80 51 26 70 31 152 44 35 6 138 -18 186 -43 63 -33 117
-87 152 -153 30 -55 35 -74 38 -153 5 -126 -18 -187 -105 -274 l-64 -64 60
-60 60 -61 63 65 c213 218 207 560 -14 764 -129 120 -296 167 -473 133z"/>
<path d="M930 1725 l-575 -575 65 -65 64 -65 506 505 c278 278 512 505 519
505 7 0 243 -228 524 -506 l510 -505 59 58 c32 31 58 62 58 68 0 10 -1140
1155 -1150 1155 -3 0 -264 -259 -580 -575z"/>
<path d="M4325 2069 c-242 -43 -403 -121 -564 -274 -107 -102 -187 -222 -225
-337 -49 -149 -50 -159 -50 -338 0 -184 7 -224 62 -368 97 -252 321 -439 624
-519 102 -28 107 -28 403 -28 204 0 326 4 380 13 85 15 218 41 248 49 16 4 17
36 17 499 l0 494 -350 0 -350 0 0 -195 0 -195 24 -6 c13 -3 56 -4 95 -2 l71 3
0 -102 0 -103 -69 0 c-269 0 -446 149 -479 405 -32 244 87 451 310 537 77 30
282 37 381 13 92 -21 159 -46 247 -90 38 -19 74 -35 80 -35 7 0 9 77 8 237
l-3 237 -65 24 c-73 26 -214 64 -306 81 -70 13 -415 13 -489 0z"/>
<path d="M7165 2055 c-63 -38 -90 -86 -90 -161 0 -54 4 -67 31 -101 36 -46
105 -83 154 -83 115 1 210 127 179 238 -13 48 -64 107 -106 123 -47 18 -125
11 -168 -16z"/>
<path d="M8720 2073 c-1 -5 -1 -98 0 -208 0 -110 -4 -206 -8 -212 -6 -10 -20
-10 -66 2 -88 23 -288 20 -388 -6 -250 -63 -411 -212 -494 -454 -24 -72 -27
-94 -27 -220 0 -139 6 -180 46 -291 43 -119 126 -234 227 -315 103 -82 198
-121 359 -145 104 -15 895 -21 919 -6 10 7 12 200 10 933 l-3 924 -287 3
c-159 1 -288 -1 -288 -5z m-37 -894 c12 -7 25 -17 29 -23 11 -16 9 -429 -2
-446 -7 -11 -33 -16 -103 -18 -86 -4 -100 -1 -151 23 -181 86 -182 363 -1 458
36 19 195 23 228 6z"/>
<path d="M13607 2073 c-4 -3 -7 -421 -7 -929 0 -831 2 -922 16 -928 28 -11
881 -7 957 5 161 24 261 69 371 168 83 76 166 215 201 341 25 90 26 299 1 390
-73 268 -271 474 -514 534 -100 25 -269 21 -370 -8 l-82 -24 0 229 0 229 -283
0 c-156 0 -287 -3 -290 -7z m816 -897 c99 -36 157 -122 157 -237 0 -114 -61
-201 -169 -237 -49 -17 -206 -16 -220 2 -8 9 -11 82 -9 242 l3 229 30 6 c53
12 169 9 208 -5z"/>
<path d="M9575 2038 c-3 -7 -4 -420 -3 -918 l3 -905 325 0 325 0 5 340 5 340
320 0 320 0 5 -340 5 -340 319 -3 c227 -2 323 1 332 9 21 17 21 1801 0 1818
-9 8 -105 11 -332 9 l-319 -3 -5 -323 -5 -323 -315 0 c-173 1 -318 1 -322 1
-4 0 -9 145 -10 323 l-3 322 -323 3 c-253 2 -324 0 -327 -10z"/>
<path d="M2964 1957 c-3 -8 -4 -45 -2 -83 l3 -69 93 -3 93 -3 -3 83 -3 83 -88
3 c-67 2 -89 0 -93 -11z"/>
<path d="M6369 1646 c-98 -26 -200 -114 -270 -232 l-29 -49 0 138 0 137 -287
-2 -288 -3 -3 -707 -2 -708 22 -5 c13 -3 142 -4 288 -3 l265 3 7 240 c10 381
34 502 115 576 43 40 72 52 129 51 56 0 105 -21 168 -71 21 -17 42 -31 46 -31
7 0 19 26 87 180 36 81 48 108 82 182 79 174 84 189 66 208 -9 10 -49 34 -88
53 -113 55 -212 69 -308 43z"/>
<path d="M6935 1628 c-3 -7 -4 -328 -3 -713 l3 -700 270 -3 c149 -1 280 0 293
3 l22 5 -2 708 -3 707 -288 3 c-225 2 -289 0 -292 -10z"/>
<path d="M11804 1626 c-3 -8 -4 -247 -1 -532 3 -489 5 -522 24 -579 41 -122
109 -217 197 -272 102 -65 272 -83 407 -43 76 23 192 96 254 159 21 23 42 41
45 41 4 0 13 -18 20 -41 21 -61 94 -132 163 -158 51 -18 79 -21 237 -21 l179
0 10 32 c5 18 28 85 51 148 66 183 71 200 65 210 -3 6 -26 10 -49 10 -27 0
-52 7 -66 18 -44 36 -50 101 -50 590 l0 452 -287 -2 -288 -3 -3 -435 -2 -434
-28 -29 c-49 -52 -106 -79 -167 -79 -65 -1 -97 22 -117 81 -7 24 -13 179 -15
469 l-5 432 -284 0 c-234 0 -286 -2 -290 -14z"/>
<path d="M2770 1435 l-55 -55 68 -67 67 -68 60 60 60 59 -62 63 c-34 35 -67
63 -73 63 -6 0 -35 -25 -65 -55z"/>
<path d="M620 525 l0 -505 124 0 124 0 41 64 c22 36 42 70 43 76 2 8 -23 12
-77 13 l-80 2 -3 428 -2 427 -85 0 -85 0 0 -505z"/>
<path d="M2228 603 l-3 -428 -80 -2 c-54 -1 -79 -5 -77 -13 1 -6 21 -40 43
-76 l41 -65 124 3 124 3 0 500 0 500 -85 3 -85 3 -2 -428z"/>
<path d="M1294 861 c-2 -2 -4 -93 -4 -202 l0 -198 -54 -90 c-63 -103 -93 -161
-77 -145 8 7 34 -1 89 -28 168 -83 351 -79 518 12 53 28 75 35 83 27 26 -26 7
15 -54 116 l-65 108 -2 200 -3 200 -213 2 c-118 1 -216 0 -218 -2z"/>
</g>
</svg>
